<svg width="24" height="24" viewBox="0 0 72 72" fill="none" xmlns="http://www.w3.org/2000/svg"><path d="M22.732 5h-.549C19.294 5 17 7.25 17 10.083v.75c0 .084.085.167.17.167h10.66c.085 0 .17-.083.17-.167v-.75C27.915 7.25 25.62 5 22.732 5zM31 25.8a1.8 1.8 0 011.8-1.8h5.4a1.8 1.8 0 011.8 1.8v5.4a1.8 1.8 0 01-1.8 1.8h-5.4a1.8 1.8 0 01-1.8-1.8v-5.4zM44.8 24a1.8 1.8 0 00-1.8 1.8v5.4a1.8 1.8 0 001.8 1.8h5.4a1.8 1.8 0 001.8-1.8v-5.4a1.8 1.8 0 00-1.8-1.8h-5.4zM19 37.8a1.8 1.8 0 011.8-1.8h5.4a1.8 1.8 0 011.8 1.8v5.4a1.8 1.8 0 01-1.8 1.8h-5.4a1.8 1.8 0 01-1.8-1.8v-5.4zM32.8 36a1.8 1.8 0 00-1.8 1.8v5.4a1.8 1.8 0 001.8 1.8h5.4a1.8 1.8 0 001.8-1.8v-5.4a1.8 1.8 0 00-1.8-1.8h-5.4zM43 37.8a1.8 1.8 0 011.8-1.8h5.4a1.8 1.8 0 011.8 1.8v5.4a1.8 1.8 0 01-1.8 1.8h-5.4a1.8 1.8 0 01-1.8-1.8v-5.4zM20.8 48a1.8 1.8 0 00-1.8 1.8v5.4a1.8 1.8 0 001.8 1.8h5.4a1.8 1.8 0 001.8-1.8v-5.4a1.8 1.8 0 00-1.8-1.8h-5.4zM31 49.8a1.8 1.8 0 011.8-1.8h5.4a1.8 1.8 0 011.8 1.8v5.4a1.8 1.8 0 01-1.8 1.8h-5.4a1.8 1.8 0 01-1.8-1.8v-5.4zM44.8 48a1.8 1.8 0 00-1.8 1.8v5.4a1.8 1.8 0 001.8 1.8h5.4a1.8 1.8 0 001.8-1.8v-5.4a1.8 1.8 0 00-1.8-1.8h-5.4z" fill="#969493"></path><path fill-rule="evenodd" clip-rule="evenodd" d="M55 14H16c-3.9 0-7 3.1-7 7v39c0 3.9 3.1 7 7 7h39c3.9 0 7-3.1 7-7V21c0-3.9-3.1-7-7-7zm-2.208 3H18.208A6.17 6.17 0 0012 23.207v34.585A6.17 6.17 0 0018.207 64h34.585A6.17 6.17 0 0059 57.792V23.208A6.17 6.17 0 0052.792 17z" fill="#969493"></path><path d="M48.183 5h.549c2.889 0 5.183 2.25 5.268 5.083v.75c0 .084-.085.167-.17.167H43.17c-.085 0-.17-.083-.17-.167v-.75C43 7.25 45.294 5 48.183 5z" fill="#969493"></path></svg>