<svg width="24" height="24" viewBox="0 0 72 72" fill="none" xmlns="http://www.w3.org/2000/svg"><path fill-rule="evenodd" clip-rule="evenodd" d="M35.62 14h.24c14.627.16 26.298 12.071 26.138 26.62-.08 14.629-11.99 26.46-26.618 26.38C20.75 66.92 8.92 55.009 9 40.38 9.08 25.751 20.99 13.92 35.62 14zm-.014 3h.212c12.973.142 23.322 10.705 23.18 23.606C58.929 53.58 48.366 64.07 35.394 64 22.421 63.929 11.93 53.366 12 40.394 12.071 27.42 22.633 16.93 35.606 17z" fill="#969493"></path><path d="M35.5 23c0-1.657 1.35-3.023 2.99-2.78a20.503 20.503 0 0117.29 17.29c.242 1.64-1.123 2.99-2.78 2.99H38.5a3 3 0 01-3-3V23zM35.732 5h-.549C32.294 5 30 7.25 30 10.083v.75c0 .084.085.167.17.167h10.66c.085 0 .17-.083.17-.167v-.75C40.915 7.25 38.62 5 35.732 5z" fill="#969493"></path></svg>