<svg width="24" height="24" viewBox="0 0 24 24" fill="none" xmlns="http://www.w3.org/2000/svg"><path fill-rule="evenodd" clip-rule="evenodd" d="M12 22.991C17.5228 22.991 22 18.5138 22 12.991C22 7.46812 17.5228 2.99097 12 2.99097C6.47715 2.99097 2 7.46812 2 12.991C2 18.5138 6.47715 22.991 12 22.991ZM12 6.98598C10.07 6.98598 8.5 8.55467 8.5 10.4831C8.5 11.0356 8.947 11.4822 9.5 11.4822C10.053 11.4822 10.5 11.0356 10.5 10.4831C10.5 9.65676 11.173 8.98432 12 8.98432C12.827 8.98432 13.5 9.65676 13.5 10.4831C13.5 11.3094 12.827 11.9818 12 11.9818C11.447 11.9818 11 12.4285 11 12.981V14.9793C11 15.5319 11.447 15.9785 12 15.9785C12.553 15.9785 13 15.5319 13 14.9793V13.8173C14.44 13.3837 15.5 12.0618 15.5 10.4831C15.5 8.55467 13.93 6.98598 12 6.98598ZM12 16.9777C11.447 16.9777 11 17.4243 11 17.9768C11 18.5294 11.447 18.976 12 18.976C12.553 18.976 13 18.5294 13 17.9768C13 17.4243 12.553 16.9777 12 16.9777Z" fill="#D5D4D4"></path></svg>