<svg width="24" height="24" fill="hsl(223,100%,50%)" xmlns="http://www.w3.org/2000/svg"><path fill-rule="evenodd" clip-rule="evenodd" d="M19.875 5.25a2.25 2.25 0 11-4.5 0 2.25 2.25 0 014.5 0zm-7.02 1.18a1.125 1.125 0 00-.97.132L9.128 8.384a1.125 1.125 0 101.242 1.877l2.3-1.523 1.066.35-2.034 3.151c-.02.032-.04.065-.057.098l-1.273 2.492-2.624-.596a1.125 1.125 0 00-.498 2.194l3.477.79a1.125 1.125 0 001.251-.585l1.049-2.053.685.54-1.108 4.395a1.125 1.125 0 002.131.722l1.364-5.148c.153-.452.005-.95-.37-1.245l-1.581-1.244 1.509-2.337.793 1.225c.208.32.563.513.944.513h2.48a1.125 1.125 0 000-2.25h-1.868l-1.125-1.737a1.125 1.125 0 00-.594-.457L12.855 6.43zM5.25 10.876a1.125 1.125 0 100 2.25h1.687a1.125 1.125 0 100-2.25H5.25zM3 8.625C3 8.004 3.504 7.5 4.125 7.5h1.687a1.125 1.125 0 110 2.25H4.125A1.125 1.125 0 013 8.625zm3.375-4.5a1.125 1.125 0 100 2.25h1.687a1.125 1.125 0 100-2.25H6.375z"></path></svg>